<svg width="44" height="23" viewBox="0 0 44 23" fill="none" xmlns="http://www.w3.org/2000/svg">
<path d="M4.13148 21.9303C2.91245 21.6083 1.99026 20.6453 1.72701 19.4194C1.60596 18.8556 1.60512 18.5671 1.72295 18.0211C1.8527 17.4198 2.11429 16.9314 2.56568 16.4477C3.24512 15.7194 4.34497 15.3158 5.364 15.4205L5.78274 15.4636L5.10919 14.1834C4.73873 13.4793 4.24754 12.5522 4.01765 12.1231C3.78776 11.694 3.61912 11.3239 3.6429 11.3005C3.66669 11.2772 4.87848 11.2581 6.33578 11.2581H8.98541V11.8387V12.4194H7.23906C6.27857 12.4194 5.50256 12.4428 5.51461 12.4715C5.63393 12.7555 8.68026 18.418 8.70217 18.3964C8.71829 18.3806 8.64819 18.2124 8.5464 18.0225C8.36459 17.6835 8.36138 17.6586 8.36466 16.6129C8.36785 15.594 8.37691 15.5221 8.57616 14.935C9.03345 13.5874 9.92163 12.5659 11.2518 11.8579C11.4686 11.7425 11.6041 11.6474 11.5529 11.6466C11.5017 11.6458 11.4753 11.63 11.4943 11.6114C11.5132 11.5928 11.5795 11.5968 11.6416 11.6202C11.7293 11.6532 11.6801 11.7028 11.4219 11.8415C10.6535 12.2541 9.86452 12.9806 9.37201 13.729C9.08669 14.1625 8.77747 14.9135 8.64946 15.4839C8.52301 16.0473 8.54068 17.4501 8.68056 17.9539C8.74249 18.177 8.77589 18.3869 8.75478 18.4205C8.73368 18.454 9.11884 19.2513 9.6107 20.1923L10.505 21.9032L9.82732 21.9021L9.14964 21.9011L8.65694 20.967C8.38596 20.4532 8.14823 20.0328 8.12866 20.0326C8.10909 20.0324 8.01146 20.1957 7.9117 20.3954C7.687 20.8454 7.11808 21.4403 6.69756 21.6651C6.02898 22.0225 4.91596 22.1375 4.13148 21.9303ZM6.08227 20.6967C7.62409 19.9308 7.64121 17.5167 6.11027 16.7496C5.50442 16.4461 4.58591 16.4634 3.97525 16.7898C2.55728 17.5477 2.51886 19.7782 3.90925 20.6221C4.50453 20.9834 5.44053 21.0155 6.08227 20.6967ZM4.75952 20.5794C5.09017 20.3847 5.45034 19.9183 5.59474 19.4977C5.74833 19.0504 5.73308 18.3155 5.56081 17.8634C5.42595 17.5094 4.93882 16.9417 4.6239 16.7716C4.51953 16.7152 4.53652 16.7056 4.72996 16.7119C5.17677 16.7265 5.74543 17.1634 6.02963 17.7105C6.2934 18.2183 6.31381 19.0963 6.07489 19.6574C5.9419 19.9697 5.47458 20.4629 5.16434 20.6183C4.87059 20.7655 4.77208 20.7787 4.94913 20.6472C5.11244 20.5259 4.99598 20.5245 4.78103 20.6452C4.49336 20.8067 4.474 20.7474 4.75952 20.5794ZM5.46405 20.2196C6.14158 19.4795 6.21115 18.2417 5.62245 17.4014C5.4339 17.1322 4.96311 16.7419 4.82701 16.7419C4.79088 16.7419 4.87767 16.8247 5.01988 16.9259C5.67166 17.3896 5.92637 17.8901 5.92768 18.7097C5.92846 19.2027 5.9025 19.3453 5.75568 19.6547C5.66057 19.8551 5.4615 20.1382 5.31328 20.2837C5.16507 20.4293 5.07063 20.5484 5.10341 20.5484C5.13619 20.5484 5.29848 20.4004 5.46405 20.2196ZM5.45667 20.5246C5.7886 20.2773 6.12983 19.798 6.2363 19.4295C6.35077 19.0334 6.33538 18.3091 6.20456 17.9355C6.07209 17.5572 5.76141 17.1368 5.43797 16.8983C5.25551 16.7637 5.24026 16.7381 5.36408 16.7745C5.45118 16.8 5.50414 16.7949 5.48395 16.7628C5.41643 16.6555 5.86365 16.72 6.13397 16.8565C7.03643 17.3124 7.43598 18.6198 6.99185 19.6637C6.86134 19.9704 6.3919 20.4641 6.08405 20.6183C5.7903 20.7655 5.69179 20.7787 5.86884 20.6472C6.0218 20.5336 5.94596 20.5186 5.74711 20.6231C5.66897 20.6641 5.50935 20.7052 5.3924 20.7143L5.17975 20.7309L5.45667 20.5246ZM5.73921 20.545C6.02144 20.3737 6.38 19.8893 6.51445 19.4977C6.66819 19.05 6.6527 18.3163 6.47981 17.8573C6.33574 17.4748 5.75334 16.8065 5.5641 16.8065C5.51408 16.8065 5.5761 16.8754 5.70191 16.9596C5.82773 17.0438 6.0304 17.2495 6.15229 17.4167C6.85065 18.3747 6.63424 19.8124 5.69064 20.4836C5.38046 20.7043 5.4117 20.7438 5.73921 20.545ZM6.35516 20.2533C6.72119 19.8633 6.88639 19.4775 6.93003 18.9108C6.97316 18.3508 6.83803 17.8237 6.54354 17.4034C6.35386 17.1326 5.88322 16.7419 5.74672 16.7419C5.71059 16.7419 5.79738 16.8247 5.93959 16.9259C6.59137 17.3896 6.84608 17.8901 6.84738 18.7097C6.84817 19.2027 6.82221 19.3453 6.67539 19.6547C6.58028 19.8551 6.3812 20.1382 6.23299 20.2837C6.08478 20.4293 5.98931 20.5484 6.02084 20.5484C6.05237 20.5484 6.20281 20.4156 6.35516 20.2533ZM12.6262 21.8782C10.0156 21.1989 8.33038 18.7283 8.65183 16.0515C8.8792 14.1582 9.92929 12.6703 11.6314 11.8297C12.4626 11.4192 13.0953 11.3033 14.3066 11.3393C15.4669 11.3738 15.903 11.4771 16.7372 11.9147C17.2863 12.2027 18.1168 12.8315 18.1168 12.9593C18.1168 13.0047 17.9912 13.2033 17.8376 13.4005C17.684 13.5976 17.5288 13.807 17.4927 13.8657C17.4361 13.9577 17.3713 13.9202 17.0252 13.5955C16.5644 13.1633 15.9093 12.8027 15.292 12.6414C14.7227 12.4927 13.5682 12.4898 13.0009 12.6357C11.73 12.9626 10.6284 13.9656 10.1899 15.1952C9.94008 15.8958 9.89696 17.0868 10.0957 17.7981C10.3764 18.8031 10.952 19.6108 11.7702 20.1483C12.5524 20.6621 12.9714 20.7742 14.1095 20.7742C14.9099 20.7742 15.1359 20.7514 15.5246 20.6313C16.0742 20.4615 16.6523 20.1075 17.0822 19.6778C17.2538 19.5061 17.4055 19.3778 17.4192 19.3925C17.5543 19.5382 18.1168 20.3093 18.1168 20.3489C18.1168 20.4644 17.3958 21.0584 16.9353 21.3223C16.6649 21.4773 16.1771 21.6903 15.8514 21.7958C15.3183 21.9683 15.1574 21.9898 14.2409 22.0105C13.3293 22.031 13.1601 22.0172 12.6262 21.8782ZM21.0407 21.9284C20.0294 21.7083 19.2259 21.2583 18.4076 20.4534C17.7757 19.832 17.3882 19.2185 17.114 18.4052C16.9354 17.8754 16.9089 17.6987 16.8838 16.871C16.8599 16.0823 16.8768 15.8473 16.9916 15.3736C17.1452 14.7394 17.411 14.1237 17.729 13.6653C18.2377 12.9323 19.2727 12.0522 19.9503 11.7766C20.0809 11.7235 20.1331 11.6728 20.0865 11.6445C20.0449 11.6193 20.0947 11.5991 20.1971 11.5998C20.2994 11.6004 20.6197 11.535 20.9088 11.4545C21.6481 11.2486 22.8996 11.2422 23.7201 11.4402C25.4763 11.864 26.9339 13.1631 27.5169 14.8243C27.927 15.9927 27.9266 17.2759 27.5156 18.4805C27.2783 19.176 27.0126 19.6337 26.5132 20.207C25.8305 20.9907 24.8483 21.6105 23.865 21.8781C23.2999 22.0319 21.6512 22.0613 21.0407 21.9284H21.0407ZM23.4077 20.7066C24.9069 20.3245 26.0245 19.1736 26.3677 17.6584C26.5271 16.9549 26.468 15.84 26.237 15.1936C25.7962 13.9598 24.7004 12.9616 23.4298 12.6362C22.8738 12.4937 21.7724 12.4968 21.2091 12.6423C18.9246 13.2325 17.6394 15.7179 18.4053 18.0645C18.8092 19.3024 19.8854 20.325 21.1614 20.6836C21.6909 20.8324 22.867 20.8445 23.4077 20.7066V20.7066ZM22.8467 20.4839C22.923 20.4354 22.9251 20.4211 22.8559 20.4203C22.8068 20.4198 22.9398 20.2938 23.1515 20.1404C23.6082 19.8096 24.1421 19.2492 24.3791 18.852C24.4728 18.6949 24.6309 18.3374 24.7303 18.0574C24.8936 17.5979 24.911 17.4636 24.9097 16.6774C24.9084 15.9097 24.8875 15.7453 24.7338 15.2903C24.4009 14.3053 23.6828 13.4415 22.8139 12.9807C22.7055 12.9232 22.6422 12.875 22.6733 12.8736C22.8363 12.8661 23.5676 13.331 23.9028 13.6551C24.4027 14.1385 24.7203 14.6156 24.9228 15.1877C25.3511 16.3971 25.2202 17.7987 24.5812 18.8468C24.3263 19.2649 23.7227 19.9012 23.3852 20.1078C23.2659 20.1808 23.1838 20.2558 23.2028 20.2745C23.2602 20.3308 23.9382 19.7962 24.2058 19.4835C24.9209 18.6482 25.2339 17.794 25.2342 16.6774C25.2344 15.8875 25.1166 15.369 24.7864 14.7055C24.5156 14.1612 23.9129 13.4939 23.372 13.1391C22.8457 12.794 23.0264 12.7315 23.6547 13.0413C24.9257 13.6681 25.8029 15.1563 25.8029 16.6858C25.8029 18.1938 24.9089 19.6865 23.6208 20.3293C23.2766 20.501 23.0944 20.539 23.4051 20.3742C24.0939 20.009 24.7912 19.2745 25.1431 18.5438C25.4572 17.8916 25.5633 17.2989 25.522 16.4265C25.4693 15.311 25.1601 14.5479 24.4465 13.7721C24.1818 13.4845 23.5808 13.0317 23.53 13.0817C23.5117 13.0996 23.6005 13.1773 23.7273 13.2543C24.1071 13.4848 24.7983 14.2705 25.0417 14.7483C25.3795 15.4115 25.4992 16.0308 25.4569 16.8966C25.414 17.7743 25.2199 18.381 24.7796 19.0139C24.3869 19.5784 23.8986 20.0126 23.3219 20.3102C22.8993 20.5283 22.6103 20.6339 22.8467 20.4839ZM23.1095 20.3548C23.1637 20.3204 23.1785 20.2923 23.1423 20.2923C23.1062 20.2923 23.0323 20.3204 22.9781 20.3548C22.9239 20.3892 22.9091 20.4174 22.9453 20.4174C22.9814 20.4174 23.0553 20.3892 23.1095 20.3548ZM23.3723 12.9677C23.2819 12.917 23.1785 12.8755 23.1423 12.8755C23.1062 12.8755 23.1505 12.917 23.2409 12.9677C23.3312 13.0185 23.4347 13.0599 23.4708 13.0599C23.5069 13.0599 23.4626 13.0185 23.3723 12.9677ZM23.6503 20.5053C23.6025 20.4864 23.7285 20.3695 23.946 20.2309C24.3841 19.9517 25.042 19.2824 25.2947 18.859C25.3907 18.6981 25.5506 18.3374 25.65 18.0574C25.8133 17.5979 25.8307 17.4636 25.8294 16.6774C25.8281 15.9097 25.8072 15.7453 25.6535 15.2903C25.3206 14.3053 24.6025 13.4415 23.7336 12.9807C23.6252 12.9232 23.5619 12.875 23.593 12.8736C23.7509 12.8663 24.4779 13.3239 24.8113 13.6404C25.9591 14.7298 26.3682 16.3041 25.9269 17.9335C25.7785 18.4813 25.3927 19.0863 24.8455 19.629C24.5503 19.9218 24.3369 20.1613 24.3713 20.1613C24.4056 20.1613 24.6651 19.9312 24.948 19.65C25.7929 18.8101 26.1568 17.9154 26.1568 16.6774C26.1568 15.8849 26.039 15.3744 25.6986 14.6906C25.421 14.1328 24.8226 13.4755 24.2591 13.1092C23.8058 12.8145 23.9572 12.8414 24.4788 13.1483C24.989 13.4484 25.6743 14.1846 25.9532 14.7322C26.2991 15.4112 26.4192 16.0251 26.3766 16.8966C26.3184 18.0869 25.888 19.0085 25.0311 19.7777C24.7464 20.0332 23.8484 20.5706 23.7516 20.5433C23.7417 20.5405 23.6961 20.5234 23.6503 20.5053ZM24.0382 20.3503C24.1848 20.2769 24.2913 20.2036 24.2749 20.1875C24.2585 20.1714 24.1152 20.2312 23.9565 20.3203C23.608 20.5159 23.6655 20.5371 24.0382 20.3503ZM7.47514 21.6141C7.35473 21.3977 7.33315 21.3065 7.38924 21.2514C7.44533 21.1964 7.50672 21.2604 7.63354 21.5061C7.8281 21.8832 7.83243 21.9032 7.71944 21.9032C7.67352 21.9032 7.56358 21.7731 7.47514 21.6141ZM7.74217 21.5369C7.52345 21.1403 7.50937 21.0908 7.59976 21.036C7.63254 21.0161 7.76557 21.1895 7.89538 21.4215C8.16388 21.9012 8.16448 21.9032 8.03779 21.9032C7.98631 21.9032 7.85328 21.7384 7.74217 21.5369ZM7.96717 21.3871C7.80051 21.0514 7.73336 20.849 7.77507 20.808C7.81678 20.767 7.94935 20.9475 8.15428 21.3241C8.42564 21.8229 8.4523 21.9032 8.34638 21.9032C8.2578 21.9032 8.15172 21.7589 7.96717 21.3871ZM8.21127 21.2726C8.00023 20.8763 7.89513 20.6107 7.92842 20.5578C7.98567 20.4668 8.14236 20.6998 8.51747 21.4336C8.75118 21.8909 8.75427 21.9032 8.63486 21.9032C8.58659 21.9032 8.39597 21.6194 8.21127 21.2726ZM8.464 21.1774C8.09356 20.4984 7.99427 20.2258 8.11744 20.2258C8.16313 20.2258 9.0511 21.791 9.0511 21.8715C9.0511 21.8889 9.0081 21.9032 8.95555 21.9032C8.90106 21.9032 8.68979 21.5913 8.464 21.1774ZM2.13352 21.6283C1.38978 21.2206 0.799215 20.4826 0.550074 19.6496C0.398838 19.1439 0.411702 18.2171 0.577264 17.6907C0.827746 16.8942 1.42739 16.1938 2.20885 15.7847C2.73219 15.5108 2.7999 15.5251 2.31367 15.8068C1.89177 16.0513 1.38323 16.5523 1.12993 16.9729C0.555477 17.9269 0.506746 19.2206 1.00621 20.2575C1.2252 20.7121 1.85607 21.3836 2.30645 21.6415C2.76356 21.9032 2.61426 21.8918 2.13352 21.6283ZM2.44892 21.6287C1.6351 21.2021 1.00925 20.3599 0.807299 19.4194C0.686248 18.8556 0.685411 18.5671 0.803239 18.0211C0.932341 17.4228 1.19417 16.9319 1.63749 16.4567C2.07485 15.988 2.86167 15.5303 3.05112 15.6344C3.1454 15.6862 3.13041 15.7106 2.94677 15.8038C2.82883 15.8637 2.74562 15.9258 2.76186 15.9418C2.77811 15.9577 2.92128 15.8979 3.08001 15.8087C3.52535 15.5587 3.53406 15.6156 3.09327 15.8954C2.70627 16.1411 2.17907 16.7037 1.97793 17.0857C1.46589 18.0581 1.44937 19.2863 1.93514 20.2667C2.16624 20.7331 2.77852 21.3851 3.22616 21.6415C3.41291 21.7484 3.53614 21.8355 3.50001 21.835C3.46388 21.8346 3.36041 21.7927 3.27008 21.7419C3.08096 21.6358 2.98341 21.6195 3.0359 21.7029C3.05589 21.7347 3.02566 21.7782 2.96871 21.7997C2.8412 21.8478 2.91017 21.8704 2.44891 21.6287L2.44892 21.6287ZM2.83921 21.6741C2.71642 21.5777 2.71778 21.5753 2.87592 21.6108C3.02928 21.6453 3.03159 21.6423 2.91069 21.5658C2.83949 21.5207 2.59892 21.3154 2.3761 21.1096C1.69689 20.4822 1.36498 19.7056 1.36498 18.7438C1.36498 17.7413 1.63308 17.0804 2.32523 16.3768C2.54658 16.1518 2.70444 15.9677 2.67602 15.9677C2.55839 15.9677 1.88271 16.7257 1.70285 17.0595C1.40768 17.6072 1.29928 18.0499 1.29928 18.7078C1.29928 19.7608 1.56558 20.414 2.29255 21.144C2.53173 21.3841 2.71259 21.5807 2.69446 21.5807C2.58074 21.5807 2.17215 21.2594 1.88849 20.947C0.946497 19.9095 0.765567 18.3695 1.43935 17.124C1.68392 16.6719 2.25757 16.0899 2.6826 15.8627C2.86155 15.7671 2.99504 15.6761 2.97923 15.6606C2.96342 15.6451 2.79732 15.7142 2.61011 15.8143C2.1937 16.0369 1.55422 16.7085 1.33452 17.1541C0.568194 18.7082 1.05916 20.6498 2.44012 21.5263C2.82644 21.7716 3.08554 21.8675 2.83921 21.6741V21.6741ZM1.65884 21.5262C-0.119192 20.4183 -0.412273 17.9279 1.05721 16.414C1.37977 16.0816 2.12064 15.5916 2.19301 15.6626C2.21056 15.6799 2.09034 15.7714 1.92584 15.8661C1.26558 16.2461 0.631153 17.1167 0.441397 17.9032C0.316489 18.4209 0.345177 19.2732 0.504373 19.7742C0.729322 20.4821 1.30418 21.2332 1.87032 21.5591C2.02596 21.6486 2.1533 21.7337 2.1533 21.748C2.1533 21.8124 2.02741 21.7559 1.65884 21.5262ZM10.6817 21.5143C10.4765 21.4103 10.29 21.2955 10.2672 21.2593C10.215 21.1763 10.3177 21.1729 10.4012 21.2549C10.4356 21.2887 10.6263 21.4043 10.8249 21.5118C11.2871 21.762 11.174 21.7639 10.6817 21.5143V21.5143ZM10.9234 21.4644C10.3031 21.138 10.1101 21.006 10.025 20.8499C9.96961 20.7482 10.0191 20.7665 10.2412 20.9298C10.737 21.2944 11.0233 21.4718 11.0591 21.4366C11.078 21.418 10.9644 21.3284 10.8065 21.2376C10.3855 20.9953 9.85146 20.5019 9.70498 20.2199C9.59413 20.0065 9.64931 20.0449 10.1188 20.5074C10.4168 20.801 10.8525 21.1625 11.0871 21.3109C11.3216 21.4593 11.4694 21.5811 11.4155 21.5816C11.329 21.5825 11.3291 21.59 11.416 21.6452C11.6626 21.8016 11.338 21.6825 10.9233 21.4644H10.9234ZM11.2847 21.5161C11.2305 21.4817 11.1566 21.4536 11.1204 21.4536C11.0843 21.4536 11.0991 21.4817 11.1533 21.5161C11.2075 21.5505 11.2814 21.5787 11.3175 21.5787C11.3537 21.5787 11.3389 21.5505 11.2847 21.5161ZM18.6193 21.5087C18.408 21.4016 18.2204 21.3283 18.2026 21.3459C18.1847 21.3634 18.2837 21.4367 18.4226 21.5086C18.5615 21.5806 18.6518 21.6407 18.6233 21.6423C18.4634 21.6511 17.4685 21.051 17.5816 21.0139C17.6209 21.0011 17.7582 21.0693 17.8867 21.1656C18.0152 21.2618 18.1359 21.3253 18.1549 21.3067C18.1739 21.288 18.0844 21.209 17.956 21.1311C17.8277 21.0532 17.7226 20.9628 17.7226 20.9302C17.7226 20.8341 17.7679 20.8565 18.1895 21.1613C18.4104 21.321 18.6233 21.4516 18.6627 21.4516C18.7529 21.4516 18.7066 21.4141 18.2318 21.1029C18.024 20.9667 17.854 20.8298 17.854 20.7986C17.854 20.7049 17.9217 20.7326 18.1764 20.9307C18.3099 21.0346 18.5795 21.2233 18.7756 21.3501C18.9716 21.4769 19.0884 21.5811 19.035 21.5816C18.9504 21.5825 18.9506 21.5907 19.0365 21.6452C19.2491 21.7801 18.9833 21.6932 18.6193 21.5087ZM18.9051 21.5161C18.8509 21.4817 18.777 21.4536 18.7409 21.4536C18.7047 21.4536 18.7195 21.4817 18.7737 21.5161C18.8279 21.5505 18.9018 21.5787 18.938 21.5787C18.9741 21.5787 18.9593 21.5505 18.9051 21.5161ZM19.2007 21.4974C18.4628 21.1054 17.8296 20.6129 18.0636 20.6129C18.1178 20.6129 18.2179 20.6734 18.2861 20.7474C18.4594 20.9355 19.036 21.3446 19.0745 21.3068C19.092 21.2896 19.0241 21.2236 18.9236 21.1601C18.5741 20.9392 18.1169 20.5359 18.1522 20.4798C18.1718 20.4487 18.4157 20.6113 18.6943 20.8412C18.9728 21.071 19.3837 21.3526 19.6072 21.4669C19.8308 21.5812 20.0038 21.6845 19.9916 21.6964C19.9795 21.7084 19.7861 21.6272 19.562 21.5161C19.3379 21.405 19.1399 21.3286 19.122 21.3462C19.104 21.3638 19.2327 21.4514 19.4078 21.5409C19.583 21.6304 19.6967 21.7044 19.6606 21.7052C19.6245 21.7061 19.4175 21.6125 19.2007 21.4974ZM10.4596 21.5448C10.3394 21.4502 10.3415 21.4489 10.4964 21.5213C10.6974 21.6154 10.7347 21.6452 10.6512 21.6452C10.616 21.6452 10.5298 21.6 10.4596 21.5448ZM14.7076 20.4249C14.6369 20.3809 14.6629 20.344 14.8212 20.2636C14.9341 20.2063 15.2201 19.9815 15.4566 19.7642C15.6932 19.5469 15.9062 19.3882 15.93 19.4115C15.9942 19.4746 15.4981 19.954 15.174 20.1422C15.0189 20.2323 14.908 20.3218 14.9277 20.3412C14.9883 20.4006 15.6791 19.8986 15.9452 19.6017C16.1305 19.395 16.2068 19.346 16.2342 19.4161C16.2829 19.5408 15.7154 20.0291 15.2211 20.2878C14.7977 20.5095 14.8298 20.5009 14.7076 20.4249ZM15.4624 20.2339C15.6758 20.0964 15.9822 19.8497 16.1432 19.6855C16.4384 19.3848 16.5402 19.3267 16.5402 19.4591C16.5402 19.5525 16.0357 20.012 15.795 20.1378C15.6923 20.1914 15.6232 20.2501 15.6416 20.2681C15.7046 20.3299 15.9825 20.1394 16.3926 19.7531C16.6186 19.5403 16.8255 19.3881 16.8525 19.415C16.8794 19.4418 16.7301 19.6207 16.5207 19.8125C16.3112 20.0044 16.1706 20.1613 16.2081 20.1613C16.2456 20.1613 16.4673 19.9773 16.7009 19.7524C16.9708 19.4925 17.1374 19.3738 17.158 19.4267C17.2368 19.6282 15.9014 20.5362 15.6601 20.4453C15.6026 20.4236 15.5719 20.3798 15.5919 20.3481C15.6443 20.2647 15.5468 20.2809 15.3577 20.3871C15.0188 20.5774 15.0892 20.4744 15.4624 20.2339ZM15.9583 20.3178C16.0682 20.262 16.1419 20.2003 16.122 20.1807C16.1021 20.1612 15.9885 20.2064 15.8695 20.2812C15.6156 20.4409 15.6709 20.4638 15.9583 20.3178ZM15.965 19.3093C15.926 19.2632 15.8288 19.0659 15.749 18.8708C15.1843 17.4904 15.1618 15.9505 15.687 14.6253C15.935 13.9996 15.988 13.9158 16.0791 14.0053C16.1286 14.0539 16.1034 14.1765 15.9933 14.4241C15.67 15.151 15.5876 15.6084 15.5876 16.6774C15.5876 17.7341 15.6498 18.0888 15.973 18.8746C16.1227 19.2385 16.118 19.4904 15.965 19.3093ZM16.095 18.9479C15.7803 18.2567 15.6793 17.809 15.6401 16.9308C15.5997 16.0267 15.6953 15.3924 15.9876 14.6255C16.3507 13.6728 16.5179 13.7569 16.1897 14.7271C15.7269 16.0953 15.7258 17.2802 16.186 18.6048C16.4623 19.3998 16.4028 19.6239 16.095 18.9479H16.095ZM16.4082 18.9768C15.9059 17.8888 15.7875 16.4491 16.1019 15.2523C16.2911 14.5323 16.5809 13.9175 16.6837 14.0184C16.7299 14.0638 16.6989 14.2137 16.5853 14.494C16.2511 15.3183 16.1842 15.6824 16.1842 16.6774C16.1842 17.6725 16.2511 18.0366 16.5853 18.8609C16.7047 19.1556 16.7312 19.2898 16.6798 19.3403C16.6284 19.3908 16.5523 19.289 16.4082 18.9768ZM16.8855 19.3092C16.7756 19.1773 16.4994 18.4718 16.369 17.9894C16.208 17.3942 16.2049 15.9906 16.3633 15.3659C16.5145 14.7692 16.8657 13.9557 16.9581 13.9879C17.0569 14.0223 17.0446 14.0772 16.7616 14.871C16.5429 15.484 16.517 15.6286 16.489 16.3924C16.4536 17.3573 16.5566 18.0054 16.8725 18.8046C17.0472 19.2467 17.054 19.5113 16.8855 19.3092H16.8855ZM17.0317 18.9867C16.4278 17.6682 16.3805 16.0077 16.9073 14.6255C17.2709 13.6717 17.4375 13.7572 17.1088 14.7289C16.605 16.2182 16.6552 17.5574 17.2704 19.0475C17.331 19.1943 17.336 19.2765 17.2871 19.3245C17.2382 19.3725 17.1624 19.2722 17.0317 18.9867ZM8.10537 17.2094C7.99982 16.9787 7.98668 16.841 8.01926 16.3073C8.07573 15.3822 8.32561 14.5751 8.79788 13.7923C9.07421 13.3343 10.0327 12.3713 10.4501 12.1324C10.6233 12.0332 10.749 11.9362 10.7293 11.9169C10.6661 11.8549 9.95215 12.3746 9.55149 12.7742C8.53236 13.7906 7.94075 15.1266 7.93141 16.4328L7.92851 16.8387L7.80393 16.6073C7.69367 16.4024 7.68697 16.3208 7.74566 15.8976C7.8296 15.2923 8.14501 14.356 8.40644 13.9363C8.72839 13.4193 9.24862 12.821 9.67467 12.4777C10.1589 12.0876 11.0335 11.6288 11.1845 11.6857C11.2687 11.7175 11.2291 11.7638 11.0098 11.8906C9.79578 12.5925 8.83875 13.7826 8.45611 15.0663C8.3507 15.4199 8.30141 15.806 8.27117 16.515L8.22994 17.4817L8.10537 17.2094ZM11.0219 11.8065C11.1122 11.7557 11.1566 11.7143 11.1204 11.7143C11.0843 11.7143 10.9808 11.7557 10.8905 11.8065C10.8002 11.8572 10.7558 11.8987 10.792 11.8987C10.8281 11.8987 10.9316 11.8572 11.0219 11.8065ZM7.50149 16.0875C7.34868 15.8447 7.69863 14.5997 8.11338 13.9106C8.58557 13.1261 9.54433 12.2363 10.3199 11.8627C10.5637 11.7453 10.6635 11.6664 10.6103 11.6332C10.5657 11.6054 10.5588 11.5826 10.5949 11.5826C10.631 11.5826 10.7014 11.608 10.7514 11.6391C10.8233 11.6838 10.8143 11.7043 10.7087 11.7372C10.4464 11.8189 9.74103 12.3104 9.32639 12.7003C8.81953 13.1769 8.39996 13.7387 8.13386 14.2972C7.92288 14.74 7.67154 15.6167 7.67154 15.9097C7.67154 16.1072 7.57642 16.2066 7.50149 16.0875ZM7.24353 15.5775C7.18569 15.3986 7.4348 14.6132 7.71801 14.0817C8.1583 13.2553 9.00157 12.4159 9.87858 11.9311C10.3461 11.6726 10.5379 11.63 10.1022 11.8815C8.77211 12.6489 7.73824 14.0098 7.46308 15.3554C7.38714 15.7268 7.31526 15.7995 7.24353 15.5775ZM5.45791 15.3345C5.36927 15.2804 3.33578 11.4416 3.33578 11.3283C3.33578 11.0938 3.555 11.403 4.04379 12.327C5.63707 15.3387 5.70638 15.4861 5.45791 15.3345ZM4.10166 15.1774C3.80663 14.7076 2.09572 11.3619 2.12594 11.3139C2.20941 11.1812 2.25441 11.2584 3.75876 14.1129C4.21487 14.9784 4.36731 15.3226 4.29454 15.3226C4.23859 15.3226 4.1518 15.2573 4.10166 15.1774ZM3.44711 13.3659C2.88004 12.2897 2.41607 11.3728 2.41607 11.3283C2.41607 11.0669 2.69002 11.509 3.61497 13.2631C4.18404 14.3422 4.64965 15.2471 4.64965 15.2739C4.64965 15.3007 4.61106 15.3226 4.5639 15.3226C4.51674 15.3226 4.01418 14.4421 3.44711 13.3659ZM4.21875 14.2419C3.90426 13.6476 3.4294 12.7522 3.1635 12.2521C2.72495 11.4274 2.66564 11.2581 2.81525 11.2581C2.85827 11.2581 4.97811 15.2108 4.97811 15.291C4.97811 15.3084 4.93591 15.3226 4.88433 15.3226C4.82958 15.3226 4.55261 14.8729 4.21875 14.2419ZM5.02137 15.1774C4.72634 14.7076 3.01542 11.3619 3.04565 11.3139C3.13031 11.1793 3.21649 11.3262 4.61261 13.9839C5.11361 14.9376 5.28661 15.3226 5.21419 15.3226C5.15828 15.3226 5.07151 15.2573 5.02137 15.1774ZM15.552 13.6693C15.3909 13.5052 15.0846 13.2584 14.8712 13.1209C14.405 12.8205 14.451 12.7942 14.9582 13.0712C15.3078 13.2621 15.9489 13.8094 15.9489 13.9169C15.9489 14.0275 15.8319 13.9546 15.552 13.6693ZM15.8777 13.6703C15.7181 13.5097 15.4138 13.2663 15.2013 13.1294C14.8232 12.8857 14.8197 12.8807 15.0371 12.898C15.3196 12.9204 15.7006 13.1119 16.1379 13.4514C16.4781 13.7155 16.5954 13.8705 16.515 13.9494C16.4923 13.9718 16.3723 13.8737 16.2483 13.7315C16.008 13.4558 15.3159 12.955 15.2561 13.0137C15.2365 13.033 15.3473 13.1226 15.5025 13.2127C15.8407 13.409 16.3139 13.8735 16.2285 13.9253C16.1951 13.9456 16.0372 13.8308 15.8777 13.6703ZM16.4717 13.6693C16.3106 13.5052 16.0043 13.2584 15.7909 13.1209C15.34 12.8304 15.354 12.8016 15.8307 13.0388C16.1569 13.2012 16.8686 13.8003 16.8686 13.9126C16.8686 14.0276 16.755 13.958 16.4717 13.6693ZM16.7974 13.6703C16.6378 13.5097 16.3299 13.2609 16.1131 13.1173C15.6641 12.8198 15.8081 12.839 16.3265 13.1457C16.7215 13.3794 17.239 13.8702 17.1484 13.9252C17.1149 13.9455 16.9569 13.8308 16.7974 13.6703V13.6703ZM18.1531 12.8765C18.1096 12.8074 18.799 12.2185 19.1058 12.0627C19.2122 12.0086 19.2993 11.9507 19.2993 11.9338C19.2993 11.8416 19.1142 11.9462 18.6119 12.3226C18.3041 12.5532 18.0372 12.7419 18.0189 12.7419C17.8001 12.7419 18.5438 12.1811 19.1827 11.8643C19.6 11.6573 19.8436 11.5727 19.6277 11.7097C19.5408 11.7649 19.5407 11.7723 19.6272 11.7732C19.6811 11.7737 19.5402 11.8929 19.314 12.0381C19.0878 12.1832 18.743 12.4453 18.5477 12.6206C18.3524 12.7959 18.1749 12.9111 18.1532 12.8765H18.1531ZM19.4964 11.8387C19.5506 11.8043 19.5653 11.7762 19.5292 11.7762C19.4931 11.7762 19.4192 11.8043 19.365 11.8387C19.3108 11.8731 19.296 11.9013 19.3321 11.9013C19.3683 11.9013 19.4422 11.8731 19.4964 11.8387ZM17.854 12.5471C17.854 12.4703 18.7209 11.9026 19.0306 11.7766C19.1837 11.7143 19.2185 11.6755 19.1559 11.6365C19.1083 11.6069 19.0989 11.5826 19.135 11.5826C19.1712 11.5826 19.2375 11.6055 19.2824 11.6335C19.3373 11.6678 19.2716 11.7285 19.0817 11.8191C18.9265 11.8932 18.5999 12.1021 18.3561 12.2833C17.8846 12.6338 17.854 12.6499 17.854 12.5471ZM17.7226 12.4205C17.7226 12.3815 17.8708 12.2591 18.0518 12.1486C18.2328 12.038 18.3659 11.9328 18.3474 11.9147C18.329 11.8966 18.1505 11.9923 17.9508 12.1273C17.7511 12.2624 17.5721 12.3575 17.5529 12.3387C17.4561 12.2436 18.6453 11.6256 18.8075 11.6867C18.888 11.717 18.845 11.7664 18.6302 11.8901C18.4743 11.9799 18.2433 12.1309 18.1168 12.2256C17.7957 12.466 17.7226 12.5021 17.7226 12.4205ZM18.6423 11.8065C18.7327 11.7557 18.777 11.7143 18.7409 11.7143C18.7047 11.7143 18.6013 11.7557 18.511 11.8065C18.4206 11.8572 18.3763 11.8987 18.4124 11.8987C18.4485 11.8987 18.552 11.8572 18.6423 11.8065ZM14.9635 11.2195C13.5065 10.9559 12.5511 10.4619 11.65 9.506C11.0887 8.91065 10.7339 8.32292 10.4792 7.56647C10.302 7.04032 10.274 6.85594 10.2482 6.04536C10.2232 5.25994 10.2399 5.0333 10.3609 4.51907C10.6665 3.22025 11.4703 2.07501 12.6096 1.31519C13.453 0.752763 14.3019 0.489362 15.4398 0.437101C17.148 0.358645 18.419 0.806397 19.5798 1.89547C20.7216 2.9668 21.2701 4.24639 21.2701 5.83872C21.2701 6.87207 21.0189 7.8059 20.5128 8.65395C20.3348 8.95226 20.3335 8.96341 20.3458 10.0473C20.3575 11.0707 20.3508 11.1386 20.2394 11.1176C20.1331 11.0976 20.1185 11.0068 20.102 10.2651C20.0873 9.6057 20.1042 9.40405 20.1841 9.28431C20.3902 8.97542 20.2728 9.04697 19.8899 9.46364C18.8256 10.6217 17.5717 11.1827 15.9489 11.2268C15.4973 11.2391 15.0538 11.2358 14.9635 11.2195ZM16.9343 9.86143C18.8854 9.32788 20.1534 7.36803 19.8907 5.29202C19.7647 4.29638 19.4339 3.6019 18.7429 2.88268C17.9941 2.10323 17.1445 1.7292 15.9818 1.66712C14.5409 1.59019 13.347 2.10335 12.4767 3.17361C11.8444 3.95122 11.5852 4.71511 11.5834 5.80646C11.582 6.64386 11.6697 7.04345 12.0083 7.74256C12.5784 8.91974 13.776 9.79256 15.062 9.96829C15.5735 10.0382 16.4765 9.98663 16.9343 9.86143ZM16.1788 9.56906C16.7833 9.25869 17.4594 8.612 17.8317 7.98826C18.322 7.16662 18.512 5.84879 18.2847 4.8458C18.0564 3.83763 17.3808 2.85185 16.5406 2.30086C16.2617 2.11796 16.1789 2.03368 16.2512 2.00641C16.307 1.9854 16.4076 1.99714 16.4749 2.03249C16.6391 2.1188 16.8076 2.11861 16.6715 2.03224C16.4636 1.90027 16.693 1.97645 17.084 2.16921C17.684 2.465 18.4928 3.28858 18.7927 3.90914C19.7062 5.79909 19.1426 8.11272 17.4975 9.22538C17.2961 9.3616 17.1456 9.48706 17.163 9.50417C17.2192 9.55933 17.7399 9.17159 18.1141 8.79592C18.8678 8.03933 19.2259 7.19962 19.2817 6.05783C19.3082 5.51585 19.2894 5.22082 19.2045 4.84577C18.9748 3.83205 18.292 2.8395 17.4545 2.30213C17.157 2.11121 17.086 2.03841 17.1672 2.00777C17.2272 1.98517 17.4258 2.0412 17.6139 2.13376C18.3805 2.51107 19.0407 3.16825 19.4273 3.93887C19.9968 5.07411 19.9631 6.72682 19.3473 7.86155C19.0839 8.34675 18.3633 9.10233 17.9106 9.36781C17.3731 9.68303 17.2449 9.6987 17.704 9.39305C18.9885 8.53803 19.709 7.08045 19.6063 5.54499C19.5324 4.439 19.125 3.54134 18.3531 2.78329C18.0159 2.45206 17.3888 2.03345 17.2299 2.03345C17.1938 2.03345 17.3268 2.12441 17.5256 2.23559C17.7243 2.34678 18.099 2.64854 18.3582 2.90618C19.4916 4.03266 19.8382 5.66327 19.2927 7.30259C19.0099 8.15242 18.2314 9.04729 17.4031 9.47476C16.954 9.70653 16.6809 9.79675 17 9.60791L17.1642 9.51073L17 9.54746L16.8358 9.5842L16.9975 9.46951C17.7893 8.90792 18.2507 8.40157 18.5778 7.73543C19.1599 6.54983 19.1263 4.91774 18.4958 3.75594C18.2417 3.28782 17.57 2.56672 17.1294 2.28902C16.9471 2.17414 16.7829 2.09488 16.7646 2.11287C16.7463 2.13087 16.8671 2.22376 17.0331 2.31931C17.7156 2.71207 18.3919 3.55226 18.6897 4.37716C18.9363 5.06028 18.9768 6.25588 18.7774 6.96942C18.6991 7.24987 18.5421 7.65051 18.4285 7.85975C18.1643 8.34654 17.4442 9.10196 16.9909 9.36782C16.4534 9.68303 16.3252 9.6987 16.7843 9.39305C19.0257 7.90103 19.362 4.72302 17.4792 2.82579C17.1643 2.50843 16.5854 2.09678 16.4541 2.09678C16.4209 2.09678 16.5741 2.21501 16.7944 2.35952C18.373 3.39479 19.0124 5.39582 18.3738 7.30261C18.0919 8.14443 17.3029 9.05185 16.4867 9.47308C16.2345 9.60321 16.003 9.7084 15.9721 9.70683C15.9413 9.70526 16.0343 9.64326 16.1788 9.56906ZM36.663 11.1974C36.4757 11.1681 36.1161 11.0826 35.864 11.0074C35.6119 10.9322 35.3513 10.888 35.2849 10.9092C35.2078 10.9338 35.1924 10.9275 35.2423 10.8918C35.2949 10.8542 35.1878 10.7678 34.9138 10.627C33.6886 9.99693 32.6286 8.71213 32.2394 7.38534C32.0569 6.76314 31.9916 5.49543 32.1086 4.84738C32.2181 4.24037 32.4929 3.48632 32.7715 3.02809C33.0839 2.51423 33.9411 1.63857 34.4693 1.29369C35.0272 0.929452 35.7799 0.6319 36.4684 0.503486C37.1239 0.381206 38.5132 0.422946 39.1035 0.582656C41.0359 1.10547 42.5731 2.712 42.9766 4.63038C43.1049 5.24081 43.11 6.43257 42.9866 7.00425C42.5631 8.96584 41.0283 10.5546 39.0549 11.0742C38.5197 11.215 37.2079 11.2826 36.663 11.1974ZM38.9416 9.80124C40.2077 9.4076 41.2473 8.29372 41.6162 6.93549C41.7697 6.37029 41.7656 5.24665 41.6079 4.67742C41.219 3.27348 40.1792 2.21694 38.7739 1.79768C38.1798 1.62044 36.8914 1.63272 36.281 1.82143C34.944 2.2348 33.8819 3.35393 33.5092 4.74194C33.2431 5.73295 33.4353 7.14548 33.9538 8.00826C34.4328 8.8055 35.3902 9.55974 36.281 9.84172C36.9874 10.0653 38.149 10.0477 38.9416 9.80124ZM38.1185 9.49829C38.6629 9.20969 39.3782 8.49072 39.6776 7.9311C40.0849 7.16991 40.2095 6.59913 40.1757 5.64913C40.1523 4.98974 40.1152 4.75087 39.9766 4.36731C39.6553 3.47851 38.9283 2.60902 38.1308 2.15983C37.6735 1.90222 37.805 1.91545 38.3058 2.17742C39.1489 2.61848 39.914 3.52336 40.226 4.44844C40.7763 6.08014 40.237 8.04367 38.9665 9.034C38.5065 9.39261 38.5122 9.3871 38.5988 9.3871C38.7379 9.3871 39.5922 8.5424 39.8629 8.13722C40.428 7.2915 40.6584 5.95801 40.4227 4.8973C40.1929 3.86308 39.6053 2.97242 38.7601 2.37724C38.1707 1.96213 38.2816 1.85742 38.947 2.20082C39.7821 2.63177 40.5489 3.54842 40.8569 4.48388C41.0499 5.07036 41.0951 6.22537 40.949 6.83872C40.7324 7.74755 40.0743 8.72321 39.3411 9.22221C39.1923 9.32344 39.0845 9.41995 39.1016 9.43666C39.1652 9.49921 39.8189 8.96683 40.1319 8.59755C40.7984 7.81096 41.1101 6.931 41.1085 5.84001C41.1067 4.56782 40.7581 3.68895 39.9282 2.86382C39.6566 2.59376 39.2717 2.28193 39.073 2.17088C38.6713 1.94641 38.6713 1.89554 39.073 2.09678C39.3738 2.24748 39.489 2.26237 39.3068 2.12699C39.101 1.97416 39.2664 2.01811 39.5928 2.203C40.3487 2.63127 41.0874 3.46505 41.3772 4.21721C41.8077 5.33474 41.7638 6.65325 41.2612 7.69737C41.053 8.12974 40.5377 8.76535 40.1369 9.08393C39.8454 9.3157 39.1365 9.71301 39.0256 9.70683C38.9975 9.70526 39.0881 9.6451 39.227 9.57313C39.3659 9.50117 39.4649 9.42792 39.447 9.41036C39.4291 9.3928 39.2654 9.45265 39.0831 9.54337C38.5634 9.802 38.458 9.68218 38.9356 9.3757C39.7628 8.84491 40.4324 7.91604 40.6948 6.93549C40.847 6.36657 40.8446 5.23858 40.69 4.68301C40.5404 4.14574 40.2028 3.50065 39.8624 3.10155C39.5617 2.74915 38.845 2.1594 38.7238 2.16468C38.681 2.16654 38.7188 2.21735 38.8077 2.27758C39.7818 2.93734 40.3461 3.70229 40.6253 4.74194C40.776 5.30286 40.7747 6.37554 40.6226 6.9299C40.4094 7.70692 39.9303 8.46771 39.3257 8.98901C39.0554 9.2221 38.3606 9.64648 38.2557 9.64258C38.2174 9.64116 38.27 9.59534 38.3726 9.54076C38.6972 9.36801 38.5099 9.37094 38.162 9.54406C37.6856 9.78115 37.6519 9.74567 38.1185 9.49829V9.49829ZM38.9416 9.54839C39.0319 9.49768 39.0763 9.45619 39.0401 9.45619C39.004 9.45619 38.9005 9.49768 38.8102 9.54839C38.7199 9.5991 38.6755 9.64059 38.7117 9.64059C38.7478 9.64059 38.8513 9.5991 38.9416 9.54839ZM39.8822 9.13222C40.8555 8.34233 41.3521 7.34025 41.4185 6.03226C41.4757 4.90533 41.1751 3.95992 40.4912 3.11629C40.1967 2.75297 39.496 2.17596 39.4291 2.24167C39.4101 2.26034 39.4942 2.3361 39.616 2.41003C39.9106 2.58881 40.5043 3.21208 40.7619 3.61291C41.0798 4.10758 41.3131 4.86945 41.3543 5.54748C41.4374 6.91641 40.8637 8.27309 39.8765 9.04184C39.4311 9.38865 39.4328 9.3871 39.5045 9.3871C39.5395 9.3871 39.7094 9.2724 39.8822 9.13222ZM38.6131 2.09678C38.5589 2.06238 38.485 2.03424 38.4489 2.03424C38.4128 2.03424 38.4276 2.06238 38.4818 2.09678C38.5359 2.13118 38.6099 2.15932 38.646 2.15932C38.6821 2.15932 38.6673 2.13118 38.6131 2.09678ZM2.02191 5.83872C2.02191 1.17922 2.03366 0.548392 2.12045 0.548392C2.20724 0.548392 2.21899 1.17922 2.21899 5.83872C2.21899 10.4982 2.20724 11.129 2.12045 11.129C2.03366 11.129 2.02191 10.4982 2.02191 5.83872ZM2.28468 5.83872C2.28468 0.591404 2.28575 0.548392 2.41607 0.548392C2.54639 0.548392 2.54746 0.591404 2.54746 5.83872C2.54746 11.086 2.54639 11.129 2.41607 11.129C2.28575 11.129 2.28468 11.086 2.28468 5.83872ZM2.61315 5.83872C2.61315 1.17922 2.6249 0.548392 2.71169 0.548392C2.79848 0.548392 2.81023 1.17922 2.81023 5.83872C2.81023 10.4982 2.79848 11.129 2.71169 11.129C2.6249 11.129 2.61315 10.4982 2.61315 5.83872ZM2.94162 5.83872C2.94162 1.17922 2.95337 0.548392 3.04016 0.548392C3.12695 0.548392 3.1387 1.17922 3.1387 5.83872C3.1387 10.4982 3.12695 11.129 3.04016 11.129C2.95337 11.129 2.94162 10.4982 2.94162 5.83872ZM3.20439 5.83872C3.20439 0.591404 3.20546 0.548392 3.33578 0.548392C3.4661 0.548392 3.46716 0.591404 3.46716 5.83872C3.46716 11.086 3.46609 11.129 3.33578 11.129C3.20546 11.129 3.20439 11.086 3.20439 5.83872ZM3.53286 5.83391V0.538791L5.61862 0.563307C7.53127 0.585788 7.73464 0.598913 8.06886 0.721443C8.6865 0.947875 8.99728 1.13102 9.39318 1.50188C10.0013 2.07154 10.2984 2.8078 10.2969 3.74194C10.2965 4.02581 10.2665 4.3742 10.2303 4.51614C10.1263 4.92394 10.1007 5.88282 10.1769 6.51424C10.3825 8.21703 11.2628 9.57357 12.7894 10.5401C13.0208 10.6866 13.1686 10.8069 13.1179 10.8074C13.0428 10.8083 13.0439 10.8201 13.1241 10.871C13.1783 10.9054 13.1931 10.9335 13.1569 10.9335C13.1208 10.9335 13.0469 10.9054 12.9927 10.871C12.9051 10.8154 12.9051 10.8082 12.9927 10.8065C13.0803 10.8047 13.0803 10.7975 12.9927 10.7419C12.8615 10.6587 12.7774 10.6608 12.8311 10.7461C12.8548 10.7838 12.6979 10.7273 12.4822 10.6204C11.7042 10.2347 10.8385 9.42537 10.3311 8.60941C10.0294 8.12413 9.73055 7.21856 9.64307 6.52431C9.58095 6.03128 9.58501 5.93658 9.67234 5.84181C9.7281 5.78129 9.77373 5.70787 9.77373 5.67865C9.77373 5.64943 9.5967 5.79135 9.38034 5.99403C8.94949 6.39763 8.28027 6.73987 7.67154 6.86791C7.47282 6.90971 6.75594 6.96097 6.07848 6.98182L4.84673 7.01973V9.07438V11.129H4.18979H3.53286V5.83391V5.83391ZM12.4338 10.4241C11.8553 10.0518 11.508 9.7402 11.074 9.20379C10.4922 8.48485 10.143 7.71474 9.97416 6.77848C9.87348 6.22025 9.88928 5.50986 10.0057 5.35864C10.0588 5.28977 10.1009 5.18815 10.0993 5.13284C10.0977 5.07752 10.033 5.14839 9.95563 5.29033C9.8414 5.49977 9.81807 5.63956 9.83184 6.03227C9.88219 7.46866 10.4267 8.71608 11.4434 9.7245C11.8556 10.1333 12.6036 10.6774 12.7533 10.6774C12.794 10.6774 12.6503 10.5634 12.4338 10.4241ZM7.75904 5.58532C8.25602 5.39473 8.54362 5.14072 8.76454 4.69727C8.91236 4.40056 8.94386 4.24859 8.94749 3.81459C8.95307 3.1483 8.80918 2.72735 8.45055 2.36082C7.95383 1.85314 7.39071 1.70968 5.89459 1.70968H4.84673V3.74878V5.78788L6.11132 5.76006C7.23049 5.73544 7.41998 5.71535 7.75904 5.58532V5.58532ZM6.59319 5.42144C7.11946 5.11161 7.40139 4.5354 7.40589 3.76049C7.40973 3.09672 7.23988 2.64982 6.84942 2.29635C6.68897 2.1511 6.52254 2.03226 6.47958 2.03226C6.43662 2.03226 6.41831 2.01572 6.4389 1.9955C6.50931 1.92635 6.99396 2.21794 7.2097 2.45925C7.48481 2.76697 7.59802 3.03651 7.64753 3.50174C7.73397 4.31398 7.40228 5.04654 6.79256 5.38998C6.38748 5.61815 6.21204 5.64583 6.59319 5.42143V5.42144ZM6.90508 5.53971C6.86087 5.52197 6.94878 5.39998 7.11276 5.25153C7.56249 4.84441 7.6976 4.50427 7.70129 3.76985C7.70411 3.20751 7.6868 3.11879 7.50663 2.77262C7.38176 2.5327 7.20015 2.31023 7.01393 2.16905C6.85171 2.04607 6.77072 1.96498 6.83395 1.98886C6.89718 2.01273 6.99811 2.05171 7.05823 2.07549C7.12094 2.10028 7.15104 2.09248 7.12883 2.05719C7.06682 1.95864 7.48724 2.00032 7.71106 2.11491C7.96673 2.2458 8.31595 2.63223 8.43816 2.91948C8.5773 3.24652 8.62063 3.9011 8.52819 4.27953C8.41221 4.75433 8.1096 5.16618 7.71227 5.38998C7.38948 5.5718 7.13843 5.65311 7.34308 5.50955C7.42223 5.45402 7.41252 5.44669 7.29371 5.47226C7.19857 5.49275 7.16141 5.47932 7.18953 5.43464C7.21759 5.39005 7.19218 5.38065 7.11855 5.4084C7.05547 5.43217 6.98411 5.45206 6.95997 5.45261C6.93582 5.45312 6.96042 5.48174 7.01461 5.51614C7.11515 5.57995 7.04372 5.59532 6.90508 5.53971ZM7.76745 5.2241C8.15639 4.84213 8.2836 4.52719 8.31402 3.87097C8.34875 3.12177 8.19722 2.68388 7.76912 2.29635C7.60867 2.1511 7.44143 2.03226 7.39747 2.03226C7.35352 2.03226 7.41879 2.10562 7.54253 2.19527C7.81558 2.39312 8.10678 2.80589 8.19611 3.12173C8.29374 3.4669 8.27682 4.09146 8.1593 4.48009C8.08442 4.72772 7.96727 4.90927 7.73542 5.13696C7.5592 5.31002 7.44219 5.45162 7.4754 5.45162C7.50861 5.45162 7.64003 5.34923 7.76745 5.2241V5.2241ZM7.53212 5.16043C7.80554 4.8546 7.90461 4.65074 7.99949 4.1987C8.14425 3.50903 7.96239 2.81035 7.52376 2.37097C7.37321 2.22017 7.22435 2.09678 7.19297 2.09678C7.16159 2.09678 7.22745 2.17242 7.33932 2.26487C7.80851 2.65259 8.06688 3.45431 7.93996 4.12861C7.85654 4.57178 7.72057 4.83813 7.42104 5.14517C7.29123 5.27823 7.21752 5.3871 7.25724 5.3871C7.29697 5.3871 7.42066 5.2851 7.53212 5.16042V5.16043ZM8.03106 5.25281C8.49069 4.83673 8.623 4.50559 8.6236 3.76985C8.62406 3.21018 8.60565 3.11715 8.42633 2.77262C8.30295 2.53556 8.12189 2.31274 7.94495 2.1802C7.62061 1.93725 7.63421 1.91351 7.99436 2.09395C8.7192 2.45711 9.0739 3.49369 8.79581 4.43614C8.69643 4.77294 8.29197 5.27109 7.99575 5.42153C7.70978 5.56675 7.71575 5.53824 8.03106 5.25281ZM19.8248 10.3994C19.8248 9.85779 19.8497 9.63756 19.9213 9.54459C20.0077 9.43241 20.0179 9.50846 20.0198 10.2742C20.0216 10.992 20.0061 11.129 19.9234 11.129C19.8416 11.129 19.8248 11.005 19.8248 10.3994ZM20.4181 10.0161C20.4197 9.19307 20.443 8.87383 20.5075 8.79033C20.5555 8.72823 20.6137 8.67742 20.6368 8.67742C20.6599 8.67742 20.6788 9.22904 20.6788 9.90323C20.6788 11.086 20.6742 11.129 20.5474 11.129C20.4211 11.129 20.4161 11.0867 20.4181 10.0161ZM20.7469 9.75807C20.7487 8.69118 20.77 8.35133 20.8431 8.22581C20.9265 8.08253 20.9372 8.2356 20.9393 9.59678C20.9413 10.9168 20.928 11.129 20.8431 11.129C20.7585 11.129 20.7449 10.9347 20.7469 9.75807ZM21.0316 11.0336C21.0111 10.9812 21.0082 10.1901 21.0251 9.27558C21.0488 7.99634 21.0795 7.54596 21.1586 7.32259C21.2559 7.04741 21.2615 7.13914 21.2657 9.08065C21.2695 10.879 21.2578 11.129 21.1695 11.129C21.1141 11.129 21.0521 11.0861 21.0316 11.0336H21.0316ZM21.3358 5.79157V0.454099L21.5244 0.646407C21.6281 0.752176 22.6225 1.82581 23.7341 3.03226C25.7287 5.19703 26.5788 6.09678 26.6296 6.09678C26.677 6.09678 27.5973 5.12101 29.6111 2.93549C30.7065 1.74678 31.6723 0.702278 31.7575 0.614375L31.9124 0.45455V5.79179V11.129H31.2555H30.5985V7.41936C30.5985 5.37904 30.5764 3.71188 30.5493 3.71456C30.5222 3.71725 30.1157 4.14088 29.646 4.65598C29.1763 5.17108 28.3117 6.11969 27.7248 6.764C27.1378 7.40832 26.6408 7.92986 26.6203 7.92298C26.5998 7.9161 26.1488 7.43555 25.6181 6.85509C23.4467 4.47994 22.7602 3.74088 22.7063 3.72044C22.6749 3.70853 22.6496 5.3578 22.6496 7.41398V11.129H21.9927H21.3358V5.79157ZM29.024 8.30646C29.0256 6.06166 29.0439 5.46076 29.1133 5.37097C29.1613 5.30888 29.2195 5.25807 29.2426 5.25807C29.2658 5.25807 29.2847 6.57904 29.2847 8.19355C29.2847 11.086 29.2827 11.129 29.1533 11.129C29.0239 11.129 29.0219 11.0867 29.024 8.30646ZM29.3504 8.10968C29.3504 5.11688 29.3624 4.93549 29.5606 4.93549C29.5895 4.93549 29.6131 6.32904 29.6131 8.03226C29.6131 11.086 29.6113 11.129 29.4818 11.129C29.3522 11.129 29.3504 11.086 29.3504 8.10968ZM29.6788 7.94782C29.6788 5.25057 29.6935 4.74755 29.7753 4.64137C29.8605 4.53072 29.872 4.90121 29.8738 7.82259C29.8757 10.7196 29.8637 11.129 29.7774 11.129C29.6911 11.129 29.6788 10.7326 29.6788 7.94782ZM29.9416 7.8136C29.9416 4.6115 29.946 4.49296 30.0708 4.34586C30.1996 4.19403 30.2 4.20435 30.2022 7.6613C30.2044 11.0867 30.2028 11.129 30.073 11.129C29.9433 11.129 29.9416 11.086 29.9416 7.8136ZM30.2701 7.64093C30.2701 4.25695 30.2889 3.90323 30.4695 3.90323C30.5094 3.90323 30.5328 5.23838 30.5328 7.51613C30.5328 11.086 30.5313 11.129 30.4015 11.129C30.2717 11.129 30.2701 11.086 30.2701 7.64093ZM12.073 10.871C11.9854 10.8154 11.9854 10.8082 12.073 10.8065C12.1606 10.8047 12.1606 10.7975 12.073 10.7419C11.9418 10.6587 11.8577 10.6608 11.9114 10.7461C11.9951 10.8792 11.1558 10.4174 10.7792 10.1232C9.88356 9.42338 9.22717 8.48477 8.93353 7.48388C8.73152 6.7953 8.7031 6.56956 8.81321 6.52806C8.93262 6.48306 8.98541 6.53582 8.98541 6.70018C8.98541 6.95783 9.20212 7.68635 9.41413 8.14145C9.71013 8.77683 10.0326 9.23744 10.5197 9.72053C10.9436 10.1409 11.6513 10.6615 11.7145 10.5994C11.7341 10.5801 11.6528 10.5073 11.5338 10.4375C10.8572 10.0404 10.0954 9.253 9.67487 8.51613C9.41273 8.05678 9.14625 7.3021 9.06375 6.78539C9.01203 6.46151 9.0191 6.40619 9.11894 6.35372C9.21971 6.30075 9.23886 6.33786 9.27854 6.6629C9.35016 7.24968 9.74125 8.3152 10.0659 8.80809C10.4604 9.4069 11.141 10.073 11.7694 10.4752C12.054 10.6574 12.2462 10.8069 12.1964 10.8074C12.1248 10.8082 12.1265 10.8215 12.2044 10.871C12.2586 10.9054 12.2734 10.9335 12.2372 10.9335C12.2011 10.9335 12.1272 10.9054 12.073 10.871V10.871ZM34.3226 10.8848C34.3717 10.8541 34.2478 10.7582 33.9887 10.6263C33.1915 10.2203 31.9781 9.05612 31.9781 8.69713C31.9781 8.61532 31.9887 8.54839 32.0016 8.54839C32.0146 8.54839 32.1286 8.70081 32.255 8.8871C32.74 9.60188 33.427 10.2281 34.1992 10.6594C34.4594 10.8047 34.5207 10.8645 34.4402 10.8948C34.2935 10.9501 34.2271 10.9444 34.3226 10.8848ZM12.2286 10.6548C11.6491 10.348 11.2237 10.0259 10.7721 9.55179C10.0396 8.78278 9.74145 8.24416 9.47087 7.20141C9.29105 6.5084 9.27392 6.20966 9.40776 6.10057C9.48629 6.03657 9.50826 6.07485 9.54207 6.33461C9.62921 7.00428 9.85485 7.84163 10.0623 8.26528C10.5362 9.23305 11.4241 10.1438 12.4187 10.6823C12.6079 10.7848 12.7332 10.8685 12.6971 10.8683C12.661 10.8681 12.4501 10.7721 12.2286 10.6548ZM33.4562 10.6652C33.2394 10.5554 32.9586 10.3917 32.8321 10.3014C32.4597 10.0354 31.9781 9.56071 31.9781 9.45959C31.9781 9.40808 32.1776 9.55351 32.4215 9.78278C32.8712 10.2055 33.2793 10.5179 33.3242 10.4737C33.3377 10.4604 33.1543 10.3048 32.9165 10.128C32.4147 9.75473 31.9564 9.24911 31.9886 9.1042C32.0034 9.03761 32.1274 9.14303 32.3557 9.41624C32.6424 9.7594 33.2582 10.2708 33.8566 10.6626C33.9718 10.738 33.9687 10.7416 33.8175 10.7083L33.6533 10.672L33.8175 10.7692C34.1093 10.9419 33.8621 10.8707 33.4562 10.6652ZM33.5915 10.5786C33.5213 10.5265 33.4326 10.4848 33.3944 10.4859C33.3561 10.4871 33.3822 10.5306 33.4523 10.5827C33.5225 10.6348 33.6112 10.6765 33.6494 10.6754C33.6877 10.6742 33.6616 10.6307 33.5915 10.5786ZM34.3789 10.6666C33.8438 10.3955 33.3996 10.0612 32.9211 9.56928C32.3606 8.99303 31.9776 8.39649 31.9798 8.10291C31.9815 7.87559 31.9865 7.88004 32.2277 8.32632C32.3631 8.57676 32.5812 8.92515 32.7123 9.10051C33.0965 9.61433 34.1577 10.5584 34.2496 10.4681C34.2664 10.4517 34.1583 10.3591 34.0096 10.2625C33.6171 10.0074 32.9619 9.34373 32.6331 8.86813C32.1779 8.20987 31.9813 7.69336 31.9835 7.1613L31.9853 6.70968L32.1069 7.1613C32.5213 8.70103 33.2598 9.66967 34.7763 10.6626C34.8915 10.738 34.8884 10.7416 34.7372 10.7083L34.573 10.672L34.7372 10.7692C35.0282 10.9414 34.7824 10.871 34.3789 10.6666ZM34.5112 10.5786C34.441 10.5265 34.3523 10.4848 34.3141 10.4859C34.2758 10.4871 34.3019 10.5306 34.372 10.5827C34.4422 10.6348 34.5309 10.6765 34.5691 10.6754C34.6074 10.6742 34.5813 10.6307 34.5112 10.5786ZM24.5192 6.67081C22.9605 4.96926 22.7148 4.68589 22.7182 4.59369C22.7215 4.50275 23.1913 4.98597 24.6498 6.58065C25.7943 7.83199 25.832 7.87799 25.752 7.92651C25.7228 7.94422 25.1681 7.37916 24.5192 6.67081ZM24.057 6.82529C23.5178 6.23243 22.9953 5.65983 22.896 5.55285C22.7131 5.35589 22.671 5.25807 22.7693 5.25807C22.8241 5.25807 23.184 5.63766 24.4469 7.02744C25.11 7.75722 25.2175 7.90323 25.0917 7.90323C25.0618 7.90323 24.5962 7.41816 24.057 6.82529ZM24.2144 6.67311C23.5887 5.99654 22.9951 5.33869 22.8955 5.21123C22.5923 4.82331 22.772 4.87832 23.1539 5.29033C24.2693 6.49359 25.4445 7.79316 25.4635 7.84431C25.5449 8.06333 25.2089 7.74828 24.2144 6.67311ZM24.9767 6.82358C24.4375 6.22978 23.8301 5.56929 23.627 5.35584C23.0599 4.76005 22.7153 4.35378 22.7153 4.28103C22.7153 4.16925 22.8059 4.24241 23.2062 4.67742C23.4185 4.90807 23.8345 5.35807 24.1307 5.67742C25.2723 6.90814 26.0657 7.79898 26.0657 7.85002C26.0657 7.9937 25.8818 7.82035 24.9767 6.82358ZM25.1351 6.66445C24.5088 5.98312 23.7081 5.11156 23.3558 4.72765C22.773 4.09247 22.6049 3.85534 22.7793 3.91398C22.8144 3.92581 23.1765 4.30095 23.584 4.74762C23.9914 5.19429 24.783 6.05973 25.3431 6.67081C25.9031 7.28189 26.3712 7.80918 26.3832 7.84255C26.462 8.06092 26.135 7.75228 25.1351 6.66445ZM26.5721 5.98954C26.5499 5.95424 26.6247 5.82602 26.7384 5.70462C26.9117 5.51945 31.4796 0.580996 31.5674 0.483876C31.5834 0.466134 31.5863 0.514926 31.5738 0.592302C31.5613 0.669679 30.6017 1.75839 29.4412 3.01166C26.5847 6.09673 26.6179 6.06229 26.5721 5.98954H26.5721ZM26.4051 5.77876C26.4452 5.66905 31.2031 0.548392 31.265 0.548392C31.3948 0.548392 31.1306 0.851564 28.8613 3.30646C26.8091 5.5265 26.316 6.02285 26.4051 5.77876ZM26.2737 5.58532C26.2905 5.53944 29.27 2.29317 30.7774 0.678424C30.9332 0.511557 30.9896 0.480905 30.9909 0.562437C30.9919 0.623387 29.9562 1.79194 28.6894 3.15921C26.6668 5.34229 26.186 5.82517 26.2737 5.58532ZM26.0362 5.39073C25.9239 5.2689 25.983 5.19799 28.1042 2.90685C30.0814 0.771324 30.5317 0.319903 30.344 0.661296C30.3099 0.723392 29.3333 1.7996 28.1738 3.05287C27.0144 4.30614 26.0657 5.34404 26.0657 5.35932C26.0657 5.3746 26.0776 5.3871 26.0922 5.3871C26.1156 5.3871 30.3692 0.808387 30.584 0.55193C30.6575 0.464213 30.6658 0.468981 30.6497 0.589903C30.6338 0.710197 26.2942 5.50034 26.1908 5.5118C26.1693 5.51418 26.0997 5.4597 26.0362 5.39073ZM31.9845 4.48388C31.9755 3.32204 33.2372 1.70611 34.7273 0.971119C34.9206 0.875783 35.0888 0.807689 35.1012 0.819798C35.1135 0.831907 34.9665 0.922603 34.7744 1.02134C33.5841 1.63338 32.53 2.96184 32.1472 4.33235L31.9877 4.90323L31.9845 4.48388ZM21.143 4.29033C21.041 3.90642 20.9608 1.16711 21.0394 0.755476C21.0769 0.559044 21.0947 0.542013 21.1772 0.623127C21.2565 0.700943 21.2692 1.03863 21.2546 2.68069C21.2383 4.52671 21.2315 4.62377 21.143 4.29033ZM10.365 3.79456C10.365 3.02736 11.6583 1.59476 12.909 0.976552C13.5011 0.683837 13.6257 0.670621 13.0826 0.958123C11.9703 1.54696 10.9942 2.57936 10.573 3.61237C10.3737 4.10125 10.365 4.10887 10.365 3.79456ZM31.9811 3.55707C31.9751 3.05809 32.9805 1.85036 33.8827 1.27296C34.1172 1.12283 34.2782 1.00001 34.2404 1.00001C33.9463 1.00001 32.8005 2.00524 32.2984 2.70367C32.0286 3.07908 31.9781 3.12319 31.9781 2.98366C31.9781 2.6773 33.0104 1.59241 33.6548 1.22155C33.8198 1.12656 33.9392 1.03345 33.92 1.01464C33.8421 0.938081 33.0921 1.50399 32.5529 2.04626C32.2091 2.39201 31.9781 2.58124 31.9781 2.51707C31.9781 2.37085 32.6348 1.70544 33.069 1.41181C33.2639 1.27996 33.4107 1.1596 33.3951 1.14434C33.3461 1.09621 32.7488 1.53026 32.3759 1.88493C32.1788 2.07241 32.0087 2.22581 31.9978 2.22581C31.987 2.22581 31.9781 2.1829 31.9781 2.13046C31.9781 1.93427 33.3078 0.983532 33.7847 0.838765C33.8569 0.816827 33.8024 0.860747 33.6635 0.936365C33.2952 1.13687 33.4173 1.1669 33.8088 0.972085C34.1605 0.797063 34.3591 0.746683 34.0803 0.903231C33.8876 1.01143 33.9341 1.02685 34.1783 0.935684C34.2928 0.892934 34.337 0.892934 34.3101 0.935684C34.2588 1.01717 34.3459 1.01706 34.4745 0.93549C34.562 0.879899 34.562 0.872623 34.4745 0.870001C34.3937 0.867581 34.3956 0.855754 34.4852 0.804394C34.5454 0.769932 34.6423 0.759719 34.7006 0.781697C34.7778 0.81079 34.6971 0.885263 34.404 1.05555C33.4814 1.59155 32.5849 2.53916 32.1676 3.41936L31.9841 3.80646L31.9811 3.55707H31.9811ZM20.8266 3.4292C20.769 3.30487 20.7445 2.8349 20.7445 1.85411C20.7445 0.603665 20.7551 0.466565 20.8443 0.554244C20.9289 0.637281 20.9414 0.878004 20.9265 2.12933C20.9116 3.372 20.8957 3.57828 20.8266 3.4292ZM10.3688 3.11713C10.3636 2.88461 11.0177 2.08039 11.5873 1.61901C11.8271 1.42472 12.2236 1.16241 12.4684 1.03611C12.9947 0.764501 13.1757 0.727488 12.6892 0.990954C12.2852 1.20974 11.6582 1.67988 11.3736 1.97744C11.1774 2.18251 10.6193 2.90223 10.451 3.16715C10.3785 3.28114 10.3724 3.27741 10.3688 3.11713ZM20.5294 2.86378C20.427 2.71565 20.4151 2.55987 20.4309 1.57346C20.4485 0.476306 20.4515 0.455326 20.5655 0.620097C20.6679 0.768235 20.6798 0.924012 20.664 1.91042C20.6464 3.00757 20.6434 3.02856 20.5294 2.86378ZM10.2708 2.81344C10.1802 2.66945 11.0089 1.76172 11.5549 1.40683C11.6968 1.31463 11.7989 1.22545 11.7818 1.20865C11.7188 1.14673 11.0761 1.66906 10.6288 2.14589C10.2966 2.49986 10.1679 2.60169 10.1679 2.51037C10.1679 2.38151 10.8586 1.67974 11.285 1.37543C11.524 1.20487 12.4255 0.741196 12.5148 0.742928C12.5428 0.743445 12.5214 0.772059 12.4672 0.806457C12.3796 0.862048 12.3796 0.869243 12.4672 0.871211C12.5214 0.87243 12.4179 0.964173 12.2372 1.07509C11.5104 1.52131 10.9401 2.04962 10.4099 2.76784C10.345 2.85572 10.3056 2.86865 10.2708 2.81344ZM12.1484 1.03304C12.3057 0.944758 12.411 0.872177 12.3824 0.87175C12.3101 0.870666 11.8102 1.12475 11.8102 1.16261C11.8102 1.21525 11.8531 1.19881 12.1484 1.03304ZM20.219 2.45202C20.1125 2.326 20.0373 1.01197 20.1185 0.69438C20.1558 0.548201 20.1725 0.539645 20.2575 0.623117C20.3354 0.699578 20.3506 0.897474 20.3358 1.64329C20.3194 2.47597 20.3077 2.55692 20.219 2.45202ZM10.0365 2.23924C10.0365 2.07523 11.054 1.27718 11.6225 0.995382C12.1085 0.75443 12.212 0.751314 11.7695 0.990956C11.3245 1.23193 10.7136 1.69751 10.4117 2.02569C10.1837 2.27346 10.0365 2.35728 10.0365 2.23924ZM19.9048 2.08168C19.8442 2.00975 19.8257 1.76712 19.8391 1.21666C19.8551 0.556381 19.8692 0.471457 19.9419 0.596491C20.0629 0.804424 20.0273 2.22704 19.9048 2.08168Z" fill="#503E9D"/>
</svg>
