<svg width="20" height="20" viewBox="0 0 20 20" fill="none" xmlns="http://www.w3.org/2000/svg">
<path d="M2.25197 8C2.08412 8.6534 1.99945 9.32538 1.99997 10C1.99997 10.69 2.08797 11.36 2.25197 12H5.09997C4.96515 10.6701 4.96515 9.32993 5.09997 8H2.25197ZM3.06997 6H5.41597C5.68197 4.783 6.06597 3.693 6.53697 2.786C5.08515 3.48542 3.87719 4.60523 3.06997 6ZM17.748 8H14.9C15.0348 9.32993 15.0348 10.6701 14.9 12H17.748C18.0846 10.6879 18.0846 9.31208 17.748 8ZM16.93 6C16.1228 4.60523 14.9148 3.48542 13.463 2.786C13.935 3.693 14.318 4.783 14.584 6H16.93ZM7.11197 8C7.03705 8.66403 6.99965 9.33176 6.99997 10C6.99997 10.685 7.03797 11.355 7.11197 12H12.888C13.0386 10.6709 13.0386 9.32908 12.888 8H7.11197ZM7.46997 6H12.53C12.348 5.2483 12.0855 4.51841 11.747 3.823C11.119 2.568 10.447 2 9.99997 2C9.55197 2 8.88097 2.568 8.25297 3.823C7.93797 4.455 7.67297 5.19 7.46997 6ZM3.06997 14C3.87719 15.3948 5.08515 16.5146 6.53697 17.214C6.06497 16.307 5.68197 15.217 5.41597 14H3.06997ZM16.93 14H14.584C14.318 15.217 13.934 16.307 13.463 17.214C14.9148 16.5146 16.1228 15.3948 16.93 14ZM7.46997 14C7.67297 14.81 7.93797 15.545 8.25297 16.177C8.88097 17.432 9.55297 18 9.99997 18C10.448 18 11.119 17.432 11.747 16.177C12.062 15.545 12.327 14.81 12.53 14H7.46997ZM9.99997 20C4.47697 20 -3.05176e-05 15.523 -3.05176e-05 10C-3.05176e-05 4.477 4.47697 0 9.99997 0C15.523 0 20 4.477 20 10C20 15.523 15.523 20 9.99997 20Z" fill="#A3A3A4"/>
</svg>
